<?xml version="1.0" encoding="iso-8859-1"?>
<!-- Generator: Adobe Illustrator 19.0.0, SVG Export Plug-In . SVG Version: 6.00 Build 0)  -->
<svg version="1.1" id="Capa_1" xmlns="http://www.w3.org/2000/svg" xmlns:xlink="http://www.w3.org/1999/xlink" x="0px" y="0px"
	 viewBox="0 0 512.001 512.001" style="enable-background:new 0 0 512.001 512.001;" xml:space="preserve">
<g>
	<g>
		<path d="M453.506,325.623c2.047-18.123,4.276-50.161-0.2-82.487c-0.568-4.112-4.369-6.989-8.473-6.412
			c-4.112,0.568-6.982,4.362-6.412,8.473c4.169,30.118,2.056,60.749,0.379,76.629c-4.708-0.784-9.539-1.2-14.467-1.2
			c-11.802,0-23.064,2.35-33.349,6.596c7.408-22.355,11.869-47.557,12.476-71.439c0.837-32.847-5.438-63.139-18.223-88.453h6.29
			l5.349,1.07c14.885,7.873,26.179,22.299,33.587,42.976c1.4,3.909,5.701,5.94,9.609,4.54c3.906-1.399,5.94-5.701,4.54-9.609
			c-4.489-12.531-10.304-23.145-17.367-31.833l3.631,0.726c4.581,0.916,8.988-2.704,8.988-7.368v-48.093
			c0-4.667-4.408-8.285-8.988-7.368l-31.089,6.218V79.66c0-3.072-1.871-5.835-4.724-6.977L359.26,58.362
			c-2.515-14.904-15.505-26.294-31.113-26.294c-17.403,0-31.561,14.158-31.561,31.561s14.158,31.561,31.561,31.561
			c13.762,0,25.487-8.857,29.794-21.168l26.815,10.726v35.49h-72.64c-4.151,0-7.515,3.363-7.515,7.514
			c0,4.151,3.363,7.515,7.515,7.515h48.594v24.547c0,4.123,3.319,7.465,7.431,7.51c34.405,59.024,18.229,134.41,2.909,170.226
			c-0.215,0.503-0.368,1.017-0.468,1.533c-2.269,1.766-4.451,3.64-6.535,5.617c-0.193-0.015-0.386-0.029-0.583-0.029h-67.945
			c6.373-19.676,10.856-42.78,7.45-64.087c-3.897-24.368-17.179-42.541-39.447-54.066v-42.657c0-4.151-3.363-7.514-7.514-7.514
			h-88.17c-26.242,0-47.592,21.35-47.592,47.592v0.526c-0.166-0.011-0.332-0.025-0.501-0.025h-0.501v-49.095h8.516
			c4.151,0,7.514-3.363,7.514-7.515v-40.077c0-4.151-3.363-7.514-7.514-7.514H7.528c-4.151,0-7.515,3.363-7.515,7.514v40.077
			c0,4.151,3.363,7.515,7.515,7.515h8.516v49.095H7.528c-4.151,0-7.515,3.364-7.515,7.515s3.363,7.514,7.515,7.514h84.503
			c-5.767,2.907-11.271,6.072-16.483,9.488C-1.581,299.516-0.336,375.326,0.074,400.237c0.029,1.773,0.078,3.551,0.038,5.324
			c-0.031,1.361-0.196,2.662,0.179,4.002c0.899,3.205,3.905,5.487,7.236,5.487h16.86c3.417,36.344,34.088,64.883,71.311,64.883
			c37.223,0,67.894-28.539,71.311-64.883h88.999c1.983,0,3.885-0.782,5.291-2.179c2.153-2.135,7.479-10.055,13.572-21.108h63.362
			c-1.026,5.356-1.57,10.881-1.57,16.532c0,4.151,3.363,7.515,7.515,7.515h8.913c3.768,35.982,34.279,64.124,71.241,64.124
			s67.473-28.141,71.241-64.124h8.913c4.151,0,7.515-3.363,7.515-7.515C512,370.178,487.547,337.671,453.506,325.623z
			 M399.783,133.913l25.048-5.01v29.761l-23.022-4.605c-0.672-0.328-1.341-0.662-2.026-0.971V133.913z M328.145,80.161
			c-9.116,0-16.532-7.416-16.532-16.532s7.416-16.532,16.532-16.532c9.116,0,16.532,7.416,16.532,16.532
			S337.261,80.161,328.145,80.161z M384.754,152.3h-9.017v-17.033h0.501h8.516V152.3z M135.273,223.939
			c0-17.956,14.607-32.563,32.563-32.563h80.656v33.064H135.273V223.939z M15.041,160.316v-25.048h105.203v25.048H15.041z
			 M31.072,224.44v-49.095h73.141v49.095H31.072z M95.697,464.904c-28.928,0-52.841-21.814-56.192-49.854h17.205
			c3.216,18.614,19.469,32.821,38.987,32.821s35.771-14.207,38.987-32.821h17.204C148.538,443.089,124.624,464.904,95.697,464.904z
			 M72.102,415.049h47.189c-2.942,10.26-12.402,17.792-23.595,17.792S75.044,425.309,72.102,415.049z M274.578,357.92
			c-8.537,20.417-18.243,36.242-22.274,42.1H15.102c-0.001-0.01-0.001-0.021-0.001-0.03c-0.416-25.283-1.519-92.444,68.685-138.464
			c12.81-8.397,27.605-15.166,43.974-20.118c1.257-0.38,2.34-1.062,3.196-1.94h124.923c17.88,9.014,28.318,22.579,31.897,41.468
			C292.671,306.77,283.301,337.06,274.578,357.92z M342.543,376.733h-59.942c1.687-3.521,3.358-7.185,4.968-10.947
			c0.835-1.951,1.675-3.986,2.513-6.086h61.317C347.856,365.001,344.876,370.707,342.543,376.733z M424.331,464.904
			c-30.583,0-55.562-24.381-56.561-54.726c7.468-13.091,16.128-22.207,26.649-27.754c-6.014,6.943-9.665,15.986-9.665,25.871
			c0,21.822,17.754,39.576,39.576,39.576c21.822,0,39.576-17.754,39.576-39.576c0-8.846-2.919-17.024-7.842-23.621
			c10.951,6.756,19.069,16.366,24.831,25.357C479.973,440.442,454.963,464.904,424.331,464.904z M399.783,408.294
			c0-13.536,11.011-24.547,24.547-24.547c13.536,0,24.547,11.011,24.547,24.547s-11.011,24.547-24.547,24.547
			S399.783,421.83,399.783,408.294z M492.813,400.78c-17.024-25.884-41.202-40.077-68.482-40.077
			c-38.956,0-57.749,21.822-68.498,40.077h-3.756c3.773-36.536,34.738-65.126,72.254-65.126c37.516,0,68.482,28.59,72.254,65.126
			H492.813z"/>
	</g>
</g>
<g>
	<g>
		<path d="M247.99,272.532h-72.139c-4.151,0-7.514,3.363-7.514,7.515c0,4.151,3.363,7.514,7.514,7.514h72.139
			c4.151,0,7.515-3.363,7.515-7.514C255.505,275.896,252.141,272.532,247.99,272.532z"/>
	</g>
</g>
<g>
	<g>
		<path d="M231.959,320.625H127.758c-4.151,0-7.515,3.363-7.515,7.514s3.364,7.515,7.515,7.515h104.201
			c4.151,0,7.515-3.364,7.515-7.515S236.111,320.625,231.959,320.625z"/>
	</g>
</g>
<g>
	<g>
		<path d="M207.913,368.718H79.666c-4.151,0-7.514,3.363-7.514,7.515c0,4.151,3.363,7.514,7.514,7.514h128.247
			c4.151,0,7.515-3.363,7.515-7.514C215.428,372.081,212.064,368.718,207.913,368.718z"/>
	</g>
</g>
<g>
</g>
<g>
</g>
<g>
</g>
<g>
</g>
<g>
</g>
<g>
</g>
<g>
</g>
<g>
</g>
<g>
</g>
<g>
</g>
<g>
</g>
<g>
</g>
<g>
</g>
<g>
</g>
<g>
</g>
</svg>
