<?xml version="1.0" encoding="iso-8859-1"?>
<!-- Generator: Adobe Illustrator 19.0.0, SVG Export Plug-In . SVG Version: 6.00 Build 0)  -->
<svg xmlns="http://www.w3.org/2000/svg" xmlns:xlink="http://www.w3.org/1999/xlink" version="1.1" id="Layer_1" x="0px" y="0px" viewBox="0 0 512 512" style="enable-background:new 0 0 512 512;" xml:space="preserve" width="512" height="512">
<g>
	<path d="M264.804,440.36c-2.309,0.279-4.665,0.449-7.005,0.505c-4.141,0.1-7.417,3.538-7.317,7.679   c0.099,4.079,3.437,7.319,7.495,7.319c0.061,0,0.123,0,0.185-0.002c2.818-0.068,5.658-0.273,8.44-0.609   c4.112-0.497,7.043-4.232,6.547-8.345C272.653,442.794,268.916,439.857,264.804,440.36z"/>
	<path d="M313.32,311.691c2.667-3.169,2.259-7.9-0.91-10.567c-2.152-1.811-4.418-3.539-6.733-5.133   c-3.412-2.35-8.082-1.489-10.431,1.921c-2.35,3.411-1.49,8.081,1.921,10.431c1.92,1.323,3.799,2.755,5.585,4.258   c1.406,1.184,3.12,1.761,4.825,1.761C309.714,314.362,311.837,313.454,313.32,311.691z"/>
	<path d="M335.802,383.459c3.82,0,7.085-2.905,7.457-6.786c0.267-2.788,0.402-5.63,0.402-8.514v-0.102c0-4.142-3.358-7.5-7.5-7.5   s-7.5,3.358-7.5,7.5l0,0.168c0,2.343-0.112,4.704-0.334,7.019c-0.395,4.123,2.627,7.786,6.751,8.181   C335.321,383.448,335.563,383.459,335.802,383.459z"/>
	<path d="M318.956,418.415c1.269,0.833,2.696,1.23,4.108,1.23c2.442,0,4.837-1.192,6.277-3.386c1.545-2.354,2.991-4.81,4.299-7.298   c1.927-3.667,0.517-8.201-3.15-10.128c-3.667-1.924-8.201-0.516-10.128,3.15c-1.083,2.062-2.282,4.097-3.562,6.047   C314.527,411.493,315.493,416.143,318.956,418.415z"/>
	<path d="M330.208,345.348c0.947,0,1.91-0.181,2.841-0.562c3.833-1.571,5.667-5.951,4.096-9.784   c-1.066-2.601-2.273-5.182-3.59-7.673c-1.935-3.663-6.474-5.063-10.135-3.128c-3.663,1.935-5.063,6.473-3.128,10.135   c1.09,2.063,2.09,4.202,2.973,6.355C324.454,343.592,327.254,345.348,330.208,345.348z"/>
	<path d="M297.292,428.023c-1.92,1.329-3.925,2.578-5.958,3.712c-3.618,2.018-4.915,6.585-2.897,10.203   c1.373,2.461,3.926,3.849,6.557,3.849c1.236,0,2.49-0.306,3.646-0.951c2.455-1.369,4.873-2.875,7.188-4.478   c3.406-2.357,4.257-7.029,1.9-10.435C305.371,426.517,300.7,425.666,297.292,428.023z"/>
	<path d="M176.349,356.409c0.598,0.146,1.197,0.216,1.786,0.216c3.376,0,6.442-2.296,7.28-5.721   c0.553-2.263,1.224-4.525,1.995-6.724c1.37-3.909-0.688-8.188-4.597-9.559c-3.909-1.372-8.188,0.688-9.559,4.597   c-0.932,2.657-1.742,5.39-2.411,8.125C169.86,351.367,172.325,355.426,176.349,356.409z"/>
	<path d="M169.259,380.967c0.406,2.787,0.954,5.584,1.626,8.312c0.843,3.419,3.906,5.707,7.276,5.707   c0.594,0,1.199-0.071,1.801-0.22c4.022-0.992,6.478-5.056,5.486-9.077c-0.557-2.26-1.01-4.576-1.347-6.886   c-0.597-4.098-4.402-6.938-8.504-6.339C171.499,373.061,168.661,376.868,169.259,380.967z"/>
	<path d="M206.449,315.08c3.029-2.825,3.194-7.571,0.369-10.6c-2.825-3.028-7.571-3.193-10.6-0.369   c-2.055,1.917-4.042,3.957-5.906,6.064c-2.744,3.103-2.453,7.843,0.649,10.587c1.427,1.262,3.2,1.882,4.966,1.882   c2.074,0,4.139-0.855,5.621-2.531C203.096,318.364,204.745,316.67,206.449,315.08z"/>
	<path d="M190.428,426.406c1.482,1.669,3.542,2.521,5.611,2.521c1.771,0,3.548-0.624,4.977-1.892   c3.098-2.75,3.379-7.491,0.629-10.588c-1.552-1.748-3.033-3.587-4.404-5.469c-2.439-3.347-7.13-4.085-10.478-1.646   c-3.348,2.439-4.085,7.13-1.646,10.478C186.771,422.08,188.558,424.299,190.428,426.406z"/>
	<path d="M213.789,436.797c-1.837,3.712-0.316,8.211,3.396,10.048c2.522,1.248,5.137,2.387,7.771,3.384   c0.875,0.332,1.772,0.488,2.655,0.488c3.028,0,5.879-1.847,7.015-4.846c1.467-3.874-0.484-8.203-4.357-9.67   c-2.18-0.826-4.344-1.768-6.431-2.801C220.123,431.564,215.625,433.085,213.789,436.797z"/>
	<path d="M271.573,297.236c0.539,0.118,1.077,0.174,1.606,0.174c3.449,0,6.555-2.395,7.32-5.902   c0.883-4.047-1.682-8.043-5.729-8.927c-2.747-0.599-5.557-1.071-8.352-1.403c-4.117-0.492-7.843,2.451-8.331,6.564   s2.451,7.843,6.564,8.331C266.969,296.349,269.298,296.74,271.573,297.236z"/>
	<path d="M227.464,300.795c0.888,0,1.791-0.159,2.669-0.494c2.177-0.83,4.42-1.562,6.667-2.175c3.996-1.091,6.35-5.215,5.259-9.211   c-1.091-3.995-5.213-6.349-9.211-5.259c-2.715,0.741-5.426,1.626-8.057,2.628c-3.871,1.475-5.813,5.809-4.337,9.679   C221.594,298.956,224.442,300.795,227.464,300.795z"/>
	<path d="M256.209,343.661c7.655,0,12.541,3.867,12.541,6.528c0,4.142,3.358,7.5,7.5,7.5s7.5-3.358,7.5-7.5   c0-10.091-8.456-18.35-20.25-20.79v-1.254c0-4.142-3.358-7.5-7.5-7.5s-7.5,3.358-7.5,7.5v1.345   c-11.574,2.548-19.831,10.728-19.831,20.699c0,16.762,15.755,22.014,25.168,25.151c12.759,4.253,14.912,6.807,14.912,10.921   c0,2.662-4.885,6.528-12.541,6.528c-7.655,0-12.54-3.867-12.54-6.528c0-4.142-3.358-7.5-7.5-7.5s-7.5,3.358-7.5,7.5   c0,9.971,8.256,18.151,19.831,20.699v1.345c0,4.142,3.358,7.5,7.5,7.5s7.5-3.358,7.5-7.5v-1.254   c11.794-2.44,20.25-10.699,20.25-20.79c0-16.762-15.755-22.014-25.169-25.152c-12.759-4.252-14.912-6.806-14.912-10.921   C243.669,347.528,248.555,343.661,256.209,343.661z"/>
	<g>
		<path d="M431.839,466.168v-9.767c0-4.142-3.358-7.5-7.5-7.5s-7.5,3.358-7.5,7.5v8.535h-24.565c-4.142,0-7.5,3.358-7.5,7.5    s3.358,7.5,7.5,7.5h32.065c4.705,0,8.532,3.827,8.532,8.532S429.043,497,424.339,497H87.661c-4.705,0-8.532-3.827-8.532-8.532    s3.828-8.532,8.532-8.532h16.034c4.142,0,7.5-3.358,7.5-7.5s-3.358-7.5-7.5-7.5h-8.534V430.81    c0-49.138,20.063-97.112,55.044-131.621l50.464-49.782c6.082-6,11.386-12.741,15.809-20.044    c6.507,1.377,13.144,2.073,19.807,2.073h60.28c4.08,6.454,8.86,12.45,14.267,17.858l51.854,51.854    c33.001,33.001,52.182,76.856,54.01,123.487c0.158,4.039,3.482,7.206,7.489,7.206c0.099,0,0.199-0.002,0.299-0.006    c4.139-0.162,7.362-3.649,7.2-7.788c-1.976-50.415-22.713-97.828-58.392-133.506l-51.854-51.854    c-3.263-3.263-6.255-6.781-8.965-10.504c8.231-4.225,14.186-12.17,15.118-21.474c0.7-6.99-1.287-13.971-5.485-19.494    c7.389-4.397,12.632-11.902,13.501-20.587c0.7-6.99-1.287-13.971-5.485-19.494c7.389-4.397,12.632-11.903,13.501-20.587    c0.7-6.99-1.287-13.971-5.485-19.494c7.388-4.396,12.632-11.903,13.501-20.587c0.778-7.771-1.764-15.53-6.974-21.288    c-5.214-5.762-12.659-9.066-20.425-9.066h-34.25l10.381-36.334c1.35-4.724,0.427-9.684-2.532-13.606    C294.882,2.25,290.367,0,285.454,0h-58.907c-4.913,0-9.428,2.25-12.387,6.172c-2.609,3.459-3.63,7.723-2.911,11.921    c-7.469,2.268-14.274,6.33-19.819,11.875L174.829,46.57c-6.154,6.153-14.335,9.542-23.038,9.542h-1.749    c-3.139-9.308-11.946-16.032-22.3-16.032H95.677c-12.976,0-23.532,10.557-23.532,23.532v144.291    c0,12.976,10.557,23.532,23.532,23.532h32.064c10.354,0,19.161-6.724,22.3-16.032l5.43,0c7.498,0,14.956,1.044,22.166,3.104    l23.671,6.763c-3.268,4.84-7.009,9.35-11.173,13.458l-50.464,49.782c-18.949,18.693-33.764,40.622-44.034,65.179    c-10.27,24.556-15.477,50.504-15.477,77.121v35.359c-9.308,3.139-16.032,11.946-16.032,22.3c0,12.976,10.557,23.532,23.532,23.532    h336.678c12.976,0,23.532-10.557,23.532-23.532C447.871,478.114,441.147,469.307,431.839,466.168z M226.135,15.205    C226.29,15,226.47,15,226.546,15h58.907c0.077,0,0.257,0,0.412,0.205c0.155,0.206,0.105,0.379,0.084,0.453l-11.559,40.455h-36.782    L226.05,15.658C226.029,15.584,225.979,15.411,226.135,15.205z M181.754,204.083c-8.548-2.442-17.394-3.681-26.283-3.681l-4.197,0    v-88.379c0-4.107-3.164-7.688-7.269-7.811c-4.247-0.128-7.731,3.278-7.731,7.497v96.193c0,4.712-3.82,8.532-8.532,8.532H95.677    c-4.712,0-8.532-3.82-8.532-8.532V63.613c0-4.712,3.82-8.532,8.532-8.532h32.064c4.712,0,8.533,3.82,8.533,8.533v15.717    c0,4.107,3.164,7.688,7.269,7.811c4.247,0.128,7.731-3.278,7.731-7.497v-8.532h0.516c12.619,0,24.721-5.013,33.645-13.936    l16.602-16.602c3.714-3.714,8.254-6.457,13.239-8.029l8.544,29.867c1.473,5.15,6.181,8.7,11.537,8.7l88.485,0    c3.605,0,7.141,1.369,9.593,4.012c2.481,2.675,3.647,6.18,3.28,9.848c-0.629,6.292-6.611,11.221-13.617,11.221h-42.735    c-4.107,0-7.688,3.164-7.811,7.269c-0.128,4.247,3.278,7.731,7.497,7.731l35.78,0c3.606,0,7.141,1.37,9.592,4.014    c2.48,2.675,3.645,6.179,3.277,9.846c-0.629,6.292-6.611,11.221-13.617,11.221h-42.735c-4.107,0-7.688,3.164-7.811,7.269    c-0.128,4.247,3.278,7.731,7.497,7.731l35.779,0c3.607,0,7.144,1.37,9.595,4.015c2.479,2.675,3.643,6.177,3.276,9.845    c-0.629,6.292-6.611,11.221-13.617,11.221h-42.735c-4.107,0-7.688,3.164-7.811,7.269c-0.128,4.247,3.278,7.731,7.497,7.731    l35.779,0c3.607,0,7.144,1.37,9.595,4.015c2.479,2.675,3.643,6.177,3.276,9.845c-0.629,6.292-6.611,11.221-13.617,11.221h-62.762    c-7.497,0-14.957-1.045-22.166-3.104L181.754,204.083z"/>
	</g>
</g>















</svg>
