<?xml version="1.0" encoding="iso-8859-1"?>
<!-- Generator: Adobe Illustrator 19.0.0, SVG Export Plug-In . SVG Version: 6.00 Build 0)  -->
<svg version="1.1" id="Capa_1" xmlns="http://www.w3.org/2000/svg" xmlns:xlink="http://www.w3.org/1999/xlink" x="0px" y="0px"
	 viewBox="0 0 512 512" style="enable-background:new 0 0 512 512;" xml:space="preserve">
<g>
	<g>
		<path d="M502,492h-30V232h30c5.523,0,10-4.477,10-10c0-28.45-6.941-54.565-19.546-73.534
			c-14.064-21.165-34.831-33.469-60.454-35.978V10c0-5.523-4.477-10-10-10H90c-5.523,0-10,4.477-10,10v102.488
			c-25.623,2.508-46.39,14.813-60.454,35.978C6.941,167.435,0,193.55,0,222c0,5.523,4.477,10,10,10h30v270c0,5.523,4.477,10,10,10
			h452c5.51,0,10-4.49,10-10S507.51,492,502,492z M475.796,159.534c9.011,13.561,14.53,31.921,15.879,52.466h-62.062
			c-1.922-34.972-10.95-62.56-25.619-80H422C445.556,132,463.656,141.264,475.796,159.534z M409.555,212h-65.827
			c-0.649-16.944-2.675-38.143-8.088-56.954c-2.608-9.063-5.789-16.75-9.522-23.046h42.67
			C395.615,138.302,407.259,175.659,409.555,212z M100,20h312v92H100V20z M323.719,212H266v-80h32.898
			C312.386,137.812,321.989,169.058,323.719,212z M246,132v80h-59.719c1.73-42.942,11.333-74.188,24.821-80H246z M183.882,132
			c-3.734,6.296-6.915,13.983-9.522,23.046c-5.413,18.811-7.439,40.01-8.088,56.954h-65.827c2.296-36.341,13.94-73.698,40.767-80
			H183.882z M20.325,212c1.349-20.544,6.869-38.905,15.879-52.466C48.344,141.264,66.444,132,90,132h16.005
			c-14.669,17.44-23.697,45.028-25.619,80H20.325z M80,492H60v-20h20V492z M190,492h-90V312h90V492z M452,492H210v-20h242V492z
			 M452,452H210V302c0-5.523-4.477-10-10-10H90c-5.523,0-10,4.477-10,10v150H60V272h392V452z M452,252H60v-20h392V252z"/>
	</g>
</g>
<g>
	<g>
		<path d="M10,492c-5.51,0-10,4.49-10,10s4.49,10,10,10s10-4.49,10-10S15.51,492,10,492z"/>
	</g>
</g>
<g>
	<g>
		<path d="M173.305,62.923c-4.937-3.061-11.153-4.383-15.674-8.041c-2.613-2.115-2.81-5.542,0.134-7.605
			c3.89-2.725,10.501-1.807,14.491,0.135c5.246,2.552,10.167,0.806,10.169-5.787c0.001-3.889-3.964-6.007-7.246-6.818
			c-3.489-0.861-7.068-1.345-10.664-1.345c-6.36,0-11.79,1.575-16.29,4.725c-4.5,3.15-6.75,7.904-6.75,14.265
			c0,3.901,0.975,7.26,2.925,10.08c3.196,4.622,8.247,7.046,13.175,9.379c4.208,1.992,12.429,4.937,12.43,10.6
			c0.002,2.267-0.953,3.786-2.439,4.721c-3.456,2.175-8.088,1.528-11.66,0.003c-3.273-1.398-6.248-5.801-9.928-5.804
			c-3.578-0.002-6.122,4.38-6.122,7.56c0,3.001,2.16,5.701,6.48,8.1c4.319,2.401,9.39,3.6,15.21,3.6
			c6.719,0,12.149-1.723,16.29-5.169c4.14-3.447,6.21-8.263,6.21-14.451C184.046,73.089,179.962,67.051,173.305,62.923z"/>
	</g>
</g>
<g>
	<g>
		<path d="M236.696,34.001c-2.617,0-7.02,0.847-7.02,4.23v22.05h-17.91c0,0,0-21.899,0-22.05c0-3.408-4.406-4.231-7.02-4.231
			c-2.62,0-7.02,0.848-7.02,4.23c0,0,0,56.775,0,57.241c0.001,1.53,0.865,2.553,2.058,3.218c1.487,0.829,3.486,1.102,4.962,1.102
			c2.504,0,7.02-0.947,7.02-4.32v-24.39h17.91c0,0,0,24.33,0,24.39c0,3.33,4.399,4.32,7.02,4.32c2.507,0,7.02-0.947,7.02-4.32
			c0,0,0-56.813,0-57.238C243.716,34.823,239.328,34.001,236.696,34.001z"/>
	</g>
</g>
<g>
	<g>
		<path d="M281.515,34.001c-13.066,0-22.05,7.965-22.05,21.24v23.85c0,7.321,2.01,12.69,6.03,16.11
			c4.019,3.42,9.359,5.13,16.019,5.13c13.041,0,22.141-7.963,22.141-21.24c0,0,0-23.813,0-23.85
			C303.655,42.005,294.616,34.001,281.515,34.001z M289.616,79.091c0,6-2.7,9-8.101,9c-5.341,0-8.01-3-8.01-9v-23.85
			c0-5.999,2.669-9,8.01-9c5.4,0,8.101,3.001,8.101,9V79.091z"/>
	</g>
</g>
<g>
	<g>
		<path d="M358.69,38.996c-3.87-3.33-9.016-4.995-15.436-4.995c0,0-18.574,0-18.63,0c-2.331,0-5.22,1.461-5.22,4.23
			c0,0,0,56.679,0,57.236c0,1.498,0.875,2.519,2.075,3.191c1.497,0.838,3.501,1.133,4.946,1.133c2.668,0,7.02-0.898,7.02-4.32
			v-19.44h8.91c6.66,0,12.014-1.695,16.064-5.085C366.722,63.995,366.93,46.086,358.69,38.996z M350.454,56.231c0,6-2.7,9-8.1,9
			h-8.91v-18.99h8.91c5.399,0,8.1,3.001,8.1,9V56.231z"/>
	</g>
</g>
<g>
	<g>
		<path d="M403,402h-13V302c0-5.523-4.477-10-10-10H270c-5.523,0-10,4.477-10,10v100h-13c-5.523,0-10,4.477-10,10s4.477,10,10,10
			h156c5.523,0,10-4.477,10-10S408.523,402,403,402z M370,402h-90v-90h90V402z"/>
	</g>
</g>
<g>
	<g>
		<circle cx="160" cy="398" r="10"/>
	</g>
</g>
<g>
</g>
<g>
</g>
<g>
</g>
<g>
</g>
<g>
</g>
<g>
</g>
<g>
</g>
<g>
</g>
<g>
</g>
<g>
</g>
<g>
</g>
<g>
</g>
<g>
</g>
<g>
</g>
<g>
</g>
</svg>
